<?xml version="1.0" standalone="no"?><!DOCTYPE svg PUBLIC "-//W3C//DTD SVG 1.1//EN" "http://www.w3.org/Graphics/SVG/1.1/DTD/svg11.dtd"><svg t="1491964577307" class="icon" style="" viewBox="0 0 1024 1024" version="1.1" xmlns="http://www.w3.org/2000/svg" p-id="3472" xmlns:xlink="http://www.w3.org/1999/xlink" width="20" height="20"><defs><style type="text/css"></style></defs><path d="M835.420017 64.076364 189.730179 64.076364c-68.468394 0-124.71749 56.120159-124.71749 124.588553l0 509.23912c0 68.468394 56.250118 123.419937 124.71749 123.419937l173.052335 0 127.944997 128.026862c6.060019 6.04467 13.992689 9.253758 21.925359 9.253758 7.955182 0 15.912411-2.946099 21.976524-9.022491 12.108782-12.138458 12.08627-31.746028-0.051165-43.855834L397.545248 768.488629c-5.819542-5.806239-13.704117-9.586332-21.925359-9.586332L189.730179 758.902296c-34.233686 0-62.295811-26.764574-62.295811-60.998259L127.434367 188.664917c0-34.233686 28.062126-63.190181 62.295811-63.190181l645.689838 0c34.233686 0 60.517305 28.955472 60.517305 63.190181l0 509.23912c0 34.233686-26.28362 60.998259-60.517305 60.998259L580.86953 758.902296c-17.144472 0-31.043017 14.066367-31.043017 31.210839s13.898545 31.210839 31.043017 31.210839l254.550487 0c68.468394 0 122.938983-54.951543 122.938983-123.419937L958.359001 188.664917C958.359001 120.196523 903.888412 64.076364 835.420017 64.076364z" p-id="3473" fill="#ffffff"></path><path d="M283.972587 557.579081c45.031613 61.123103 121.945353 92.115977 228.602511 92.115977 106.065687 0 183.100178-31.026644 228.960669-92.217285 47.499827-63.376423 48.647977-143.163607 42.763966-194.325847 9.517771-10.019191 15.371082-23.555485 15.371082-38.467103 0-30.860868-25.016767-55.876612-55.876612-55.876612-30.859845 0-55.876612 25.016767-55.876612 55.876612 0 23.589254 14.625092 43.74941 35.296901 51.947116 3.880377 40.654932 1.830695 99.521644-31.532157 143.843082-33.534767 44.547589-93.795223 67.134003-179.106214 67.134003-85.691661 0-145.731082-22.416546-178.449251-66.626443-33.225729-44.89449-33.338293-104.835673-28.40698-144.656611 20.260439-8.389064 34.519188-28.346605 34.519188-51.640124 0-30.860868-25.016767-55.876612-55.876612-55.876612-30.859845 0-55.876612 25.016767-55.876612 55.876612 0 15.321964 6.17156 29.199019 16.159028 39.293935C237.796918 414.234349 237.159398 494.040976 283.972587 557.579081z" p-id="3474" fill="#ffffff"></path></svg>